<!-- Shape: portfolio-svgrepo-com -->
<svg xmlns:xlink="http://www.w3.org/1999/xlink" fill="none" width="24" xmlns="http://www.w3.org/2000/svg" style="-webkit-print-color-adjust:exact" id="screenshot-5052de9f-44fa-8004-8002-2540b30f0f56" version="1.1" viewBox="531 850 24 24" height="24">
  <path rx="0" ry="0" style="fill:currentColor;fill-opacity:1" d="M545.799,855.402L545.799,853.403L540.201,853.403L540.201,855.402L533.404,855.402L533.404,870.596L552.596,870.596L552.596,855.402L545.799,855.402ZZM541.001,854.203L544.999,854.203L544.999,855.402L541.001,855.402L541.001,854.203ZZM540.201,856.202L551.797,856.202L551.797,862.600L545.799,862.600L545.799,861.000L540.201,861.000L540.201,862.600L534.203,862.600L534.203,856.202L540.201,856.202ZZM544.999,861.800L544.999,864.199L541.001,864.199L541.001,861.800L544.999,861.800ZZM534.203,869.797L534.203,863.399L540.201,863.399L540.201,864.999L545.799,864.999L545.799,863.399L551.797,863.399L551.797,869.797L534.203,869.797ZZ"></path>
</svg>
