<!-- Shape: svg-g -->
<svg xmlns:xlink="http://www.w3.org/1999/xlink" fill="none" width="18.286" xmlns="http://www.w3.org/2000/svg" style="-webkit-print-color-adjust:exact" id="screenshot-5052de9f-44fa-8004-8002-2540b30f0f6f" version="1.1" viewBox="533.857 702 18.286 24" height="24">
  <g id="shape-5052de9f-44fa-8004-8002-2540b30f0f6f" style="fill:#000000" rx="0" ry="0">
    <g id="shape-5052de9f-44fa-8004-8002-2540b30f0f71">
      <g class="fills" id="fills-5052de9f-44fa-8004-8002-2540b30f0f71">
        <path class="st0" rx="0" ry="0" style="fill:#bdbdbd;fill-opacity:1" d="M540.124,721.429C540.885,721.429,543.000,721.429,543.000,721.429C543.000,721.429,545.115,721.429,545.876,721.429C546.636,721.429,546.981,720.322,546.541,719.540C546.210,718.951,545.667,718.283,544.783,717.903C544.277,718.257,543.662,718.466,543.000,718.466C542.337,718.466,541.723,718.257,541.217,717.903C540.333,718.283,539.790,718.951,539.458,719.540C539.019,720.322,539.363,721.429,540.124,721.429ZZ">
        </path>
      </g>
    </g>
    <g id="shape-5052de9f-44fa-8004-8002-2540b30f0f72">
      <g class="fills" id="fills-5052de9f-44fa-8004-8002-2540b30f0f72">
        <path class="st0" rx="0" ry="0" style="fill:#bdbdbd;fill-opacity:1" d="M543.000,717.725C544.299,717.725,545.352,716.673,545.352,715.374L545.352,714.811C545.352,713.512,544.299,712.459,543.000,712.459C541.701,712.459,540.648,713.512,540.648,714.811L540.648,715.374C540.648,716.673,541.701,717.725,543.000,717.725ZZ">
        </path>
      </g>
    </g>
    <g id="shape-5052de9f-44fa-8004-8002-2540b30f0f73">
      <g class="fills" id="fills-5052de9f-44fa-8004-8002-2540b30f0f73">
        <path class="st0" rx="0" ry="0" style="fill:#bdbdbd;fill-opacity:1" d="M549.983,704.667L546.429,704.667L546.429,705.429C546.429,706.899,545.232,708.095,543.762,708.095L542.238,708.095C540.768,708.095,539.571,706.899,539.571,705.429L539.571,704.667L536.017,704.667C534.824,704.667,533.857,705.634,533.857,706.826L533.857,723.840C533.857,725.033,534.824,726.000,536.017,726.000L549.983,726.000C551.176,726.000,552.143,725.033,552.143,723.840L552.143,706.826C552.143,705.634,551.176,704.667,549.983,704.667ZZM549.857,723.714L536.143,723.714L536.143,709.048L549.857,709.048L549.857,723.714ZZ">
        </path>
      </g>
    </g>
    <g id="shape-5052de9f-44fa-8004-8002-2540b30f0f74">
      <g class="fills" id="fills-5052de9f-44fa-8004-8002-2540b30f0f74">
        <path class="st0" rx="0" ry="0" style="fill:#bdbdbd;fill-opacity:1" d="M542.238,707.333L543.762,707.333C544.812,707.333,545.667,706.479,545.667,705.429L545.667,703.905C545.667,702.855,544.812,702.000,543.762,702.000L542.238,702.000C541.188,702.000,540.333,702.855,540.333,703.905L540.333,705.429C540.333,706.479,541.188,707.333,542.238,707.333ZZM541.857,703.905C541.857,703.694,542.028,703.524,542.238,703.524L543.762,703.524C543.973,703.524,544.143,703.694,544.143,703.905L544.143,704.667C544.143,704.877,543.973,705.048,543.762,705.048L542.238,705.048C542.028,705.048,541.857,704.877,541.857,704.667L541.857,703.905ZZ">
        </path>
      </g>
    </g>
  </g>
</svg>
