<!-- Shape: report-svgrepo-com -->
<svg xmlns:xlink="http://www.w3.org/1999/xlink" fill="none" width="24" xmlns="http://www.w3.org/2000/svg" style="-webkit-print-color-adjust:exact" id="screenshot-5052de9f-44fa-8004-8002-2540b30f0f60" version="1.1" viewBox="531 554 24 24" height="24">
  <g id="shape-5052de9f-44fa-8004-8002-2540b30f0f60" style="fill:#000000" version="1.1" xmlns:xlink="http://www.w3.org/1999/xlink" width="800px" height="800px" xml:space="preserve" rx="0" ry="0">
    <g id="shape-5052de9f-44fa-8004-8002-2540b30f0f80">
      <g class="fills" id="fills-5052de9f-44fa-8004-8002-2540b30f0f80">
        <path class="linesandangles_een" rx="0" ry="0" style="fill:#bdbdbd;fill-opacity:1" d="M549.000,559.250L549.000,557.750L534.000,557.750L534.000,571.250C534.000,572.907,535.343,574.250,537.000,574.250L549.000,574.250C550.657,574.250,552.000,572.907,552.000,571.250L552.000,559.250L549.000,559.250ZZM550.500,571.250C550.500,572.079,549.829,572.750,549.000,572.750L537.000,572.750C536.171,572.750,535.500,572.079,535.500,571.250L535.500,559.250L547.500,559.250L547.500,571.250L549.000,571.250L549.000,560.750L550.500,560.750L550.500,571.250ZZM541.500,560.750L537.000,560.750L537.000,565.250L541.500,565.250L541.500,560.750ZZM540.000,563.750L538.500,563.750L538.500,562.250L540.000,562.250L540.000,563.750ZZM543.000,560.750L546.000,560.750L546.000,562.250L543.000,562.250L543.000,560.750ZZM543.000,563.750L546.000,563.750L546.000,565.250L543.000,565.250L543.000,563.750ZZM537.000,566.750L546.000,566.750L546.000,568.250L537.000,568.250L537.000,566.750ZZM537.000,569.750L546.000,569.750L546.000,571.250L537.000,571.250L537.000,569.750ZZ">
        </path>
      </g>
    </g>
  </g>
</svg>
