<svg xmlns:xlink="http://www.w3.org/1999/xlink" width="24" xmlns="http://www.w3.org/2000/svg" height="24" id="screenshot-4ffd6fbc-eaec-808b-8002-51f62c322bdb" viewBox="0 0 24 24" style="-webkit-print-color-adjust: exact;" fill="none" version="1.1"><g xmlns:xlink="http://www.w3.org/1999/xlink" width="800px" xml:space="preserve" height="800px" id="shape-4ffd6fbc-eaec-808b-8002-51f62c322bdb" style="fill: rgb(0, 0, 0);" ry="0" rx="0" version="1.1"><g id="shape-4ffd6fbc-eaec-808b-8002-51f62c322bde"><style type="text/css" rx="0" ry="0" style="fill: rgb(0, 0, 0);"/></g><g id="shape-4ffd6fbc-eaec-808b-8002-51f62c322bdf" rx="0" ry="0" style="fill: rgb(0, 0, 0);"><g id="shape-4ffd6fbc-eaec-808b-8002-51f62c322be0"><g class="fills" id="fills-4ffd6fbc-eaec-808b-8002-51f62c322be0"><path class="st0" rx="0" ry="0" d="M21.089,4.123C20.912,3.705,20.618,3.352,20.249,3.102C19.879,2.852,19.428,2.705,18.949,2.705L16.950,2.705L16.950,2.360L14.052,2.360C14.065,2.266,14.072,2.169,14.072,2.072C14.072,0.929,13.143,0.000,12.000,0.000C10.857,0.000,9.928,0.929,9.928,2.072C9.928,2.169,9.935,2.266,9.949,2.360L7.050,2.360L7.050,2.705L5.051,2.705C4.732,2.705,4.425,2.770,4.147,2.888C3.729,3.064,3.376,3.358,3.125,3.728C2.876,4.099,2.728,4.548,2.728,5.027L2.728,21.678C2.728,21.997,2.793,22.304,2.911,22.582C3.088,22.999,3.382,23.353,3.752,23.603C4.121,23.853,4.572,24.000,5.051,24.000L18.949,24.000C19.268,24.000,19.575,23.936,19.854,23.817C20.271,23.641,20.624,23.347,20.875,22.977C21.125,22.607,21.272,22.156,21.272,21.678L21.272,5.027C21.272,4.708,21.207,4.401,21.089,4.123ZZM12.000,1.303C12.424,1.303,12.769,1.648,12.769,2.072C12.769,2.174,12.749,2.270,12.712,2.360L11.287,2.360C11.251,2.271,11.231,2.174,11.231,2.072C11.231,1.648,11.577,1.303,12.000,1.303ZZM19.890,21.678C19.890,21.810,19.864,21.932,19.816,22.044C19.746,22.211,19.625,22.356,19.475,22.459C19.324,22.560,19.147,22.619,18.949,22.619L5.051,22.619C4.919,22.619,4.797,22.592,4.685,22.545C4.517,22.474,4.372,22.353,4.270,22.203C4.168,22.052,4.110,21.875,4.110,21.678L4.110,5.027C4.110,4.895,4.136,4.773,4.184,4.661C4.255,4.493,4.374,4.348,4.525,4.247C4.676,4.145,4.853,4.087,5.051,4.086L7.050,4.086L7.050,4.374C7.050,4.915,7.488,5.353,8.030,5.353L15.970,5.353C16.512,5.353,16.950,4.915,16.950,4.374L16.950,4.086L18.949,4.086C19.081,4.086,19.203,4.113,19.315,4.160C19.483,4.231,19.628,4.351,19.730,4.501C19.831,4.653,19.890,4.830,19.890,5.027L19.890,21.678ZZ" style="fill: rgb(26, 115, 232); fill-opacity: 1;"/></g></g><g id="shape-4ffd6fbc-eaec-808b-8002-51f62c322be1"><g class="fills" id="fills-4ffd6fbc-eaec-808b-8002-51f62c322be1"><rect width="10.014421875000153" height="1.1506406249995962" class="st0" x="6.992437500000506" transform="matrix(1.000000, 0.000000, 0.000000, 1.000000, 0.000000, 0.000000)" style="fill: rgb(26, 115, 232); fill-opacity: 1;" ry="0" rx="0" y="8.115234375"/></g></g><g id="shape-4ffd6fbc-eaec-808b-8002-51f62c322be2"><g class="fills" id="fills-4ffd6fbc-eaec-808b-8002-51f62c322be2"><rect width="10.014421875000153" height="1.150640625000051" class="st0" x="6.992437500000506" transform="matrix(1.000000, 0.000000, 0.000000, 1.000000, 0.000000, 0.000000)" style="fill: rgb(26, 115, 232); fill-opacity: 1;" ry="0" rx="0" y="11.280749999999898"/></g></g><g id="shape-4ffd6fbc-eaec-808b-8002-51f62c322be3"><g class="fills" id="fills-4ffd6fbc-eaec-808b-8002-51f62c322be3"><rect width="10.014421875000153" height="1.150640625000051" class="st0" x="6.992437500000506" transform="matrix(1.000000, 0.000000, 0.000000, 1.000000, 0.000000, 0.000000)" style="fill: rgb(26, 115, 232); fill-opacity: 1;" ry="0" rx="0" y="14.446312499999749"/></g></g><g id="shape-4ffd6fbc-eaec-808b-8002-51f62c322be4"><g class="fills" id="fills-4ffd6fbc-eaec-808b-8002-51f62c322be4"><rect width="5.006859375000204" height="1.1513906250002037" class="st0" x="12.000000000000455" transform="matrix(1.000000, 0.000000, 0.000000, 1.000000, 0.000000, 0.000000)" style="fill: rgb(26, 115, 232); fill-opacity: 1;" ry="0" rx="0" y="18.474609374999545"/></g></g></g></g></svg>