<!-- Shape: svg-path -->
<svg xmlns:xlink="http://www.w3.org/1999/xlink" fill="none" width="15" xmlns="http://www.w3.org/2000/svg" style="-webkit-print-color-adjust:exact" id="screenshot-5052de9f-44fa-8004-8002-2540b30f0f77" version="1.1" viewBox="532 983 22.1 15" height="15">
  <g id="shape-5052de9f-44fa-8004-8002-2540b30f0f77">
    <g class="fills" id="fills-5052de9f-44fa-8004-8002-2540b30f0f77">
      <path rx="0" ry="0" style="fill:currentColor;fill-opacity:1" d="M538.500,983.000C536.600,983.000,535.000,984.600,535.000,986.500C535.000,988.400,536.600,990.000,538.500,990.000C540.400,990.000,542.000,988.400,542.000,986.500C542.000,984.600,540.400,983.000,538.500,983.000ZZM547.500,983.000C545.600,983.000,544.000,984.600,544.000,986.500C544.000,988.400,545.600,990.000,547.500,990.000C549.400,990.000,551.000,988.400,551.000,986.500C551.000,984.600,549.400,983.000,547.500,983.000ZZM538.500,992.000C533.600,992.000,532.000,996.000,532.000,996.000L532.000,998.000L545.000,998.000L545.000,996.000C545.000,996.000,543.400,992.000,538.500,992.000ZZM547.500,992.000C546.000,992.000,544.800,992.400,543.900,992.900C545.300,994.100,545.900,995.500,546.000,995.600L546.100,995.800L546.100,998.000L554.100,998.000L554.100,996.000C554.000,996.000,552.400,992.000,547.500,992.000ZZ">
      </path>
    </g>
  </g>
</svg>
