<!-- Shape: policy-svgrepo-com -->
<svg xmlns:xlink="http://www.w3.org/1999/xlink" fill="none" width="24" xmlns="http://www.w3.org/2000/svg" style="-webkit-print-color-adjust:exact" id="screenshot-5052de9f-44fa-8004-8002-2540b30f0f5e" version="1.1" viewBox="531 638 24 24" height="24">
  <g id="shape-5052de9f-44fa-8004-8002-2540b30f0f5e" style="fill:#000000" class="cf-icon-svg" width="800px" height="800px" rx="0" ry="0">
    <g id="shape-5052de9f-44fa-8004-8002-2540b30f0f7e">
      <g class="fills" id="fills-5052de9f-44fa-8004-8002-2540b30f0f7e">
        <path rx="0" ry="0" style="fill:#bdbdbd;fill-opacity:1" d="M551.770,643.615C551.769,644.740,550.858,645.652,549.733,645.653L549.093,645.653L549.093,656.259C549.092,657.384,548.181,658.295,547.056,658.296L536.267,658.296C535.142,658.296,534.229,657.384,534.229,656.258C534.229,655.133,535.142,654.220,536.267,654.220L536.905,654.220L536.905,643.615C536.905,642.489,537.818,641.575,538.944,641.575L549.731,641.575C550.857,641.575,551.769,642.488,551.770,643.615ZZM536.267,656.897L545.118,656.897C544.982,656.483,544.982,656.035,545.118,655.621L536.270,655.621C535.918,655.621,535.632,655.907,535.632,656.259C535.632,656.611,535.918,656.897,536.267,656.897ZZM547.693,643.615C547.692,643.398,547.726,643.183,547.794,642.977L538.945,642.977C538.803,642.977,538.665,643.024,538.554,643.112L538.551,643.113C538.397,643.234,538.306,643.419,538.307,643.615L538.307,654.220L546.312,654.220C546.671,654.216,546.986,654.461,547.070,654.810C547.168,655.143,547.040,655.502,546.753,655.697C546.479,655.845,546.353,656.170,546.454,656.465C546.555,656.759,546.854,656.938,547.162,656.887C547.469,656.836,547.694,656.570,547.695,656.259ZM546.606,645.431L539.331,645.431L539.331,646.829L546.606,646.829ZM546.606,648.286L539.331,648.286L539.331,649.684L546.606,649.684ZM546.606,651.141L539.331,651.141L539.331,652.540L546.606,652.540ZM550.369,643.615C550.369,643.263,550.083,642.978,549.731,642.977C549.589,642.976,549.451,643.024,549.340,643.112L549.337,643.112C549.182,643.232,549.091,643.418,549.092,643.615L549.092,644.253L549.731,644.253C550.083,644.252,550.369,643.967,550.369,643.615ZZ">
        </path>
      </g>
    </g>
  </g>
</svg>
