<!-- Shape: shield-warning-svgrepo-com -->
<svg xmlns:xlink="http://www.w3.org/1999/xlink" fill="none" width="25.5" xmlns="http://www.w3.org/2000/svg" style="-webkit-print-color-adjust:exact" id="screenshot-5052de9f-44fa-8004-8002-2540b30f0f5c" version="1.1" viewBox="530.25 785.25 25.5 25.5" height="25.5">
  <g id="shape-5052de9f-44fa-8004-8002-2540b30f0f5c" style="fill:#000000" width="800px" version="1.1" height="800px" rx="0" ry="0">
    <g id="shape-5052de9f-44fa-8004-8002-2540b30f0f7b">
      <g class="fills" id="fills-5052de9f-44fa-8004-8002-2540b30f0f7b">
        <path fill="none" stroke-linecap="round" stroke-linejoin="round" rx="0" ry="0" style="fill:none" d="M543.000,788.625L550.875,791.625L550.875,799.125C550.875,802.500,547.875,805.875,543.000,807.375C538.125,805.875,535.125,802.875,535.125,799.125L535.125,791.625Z">
        </path>
      </g>
      <g id="strokes-5052de9f-44fa-8004-8002-2540b30f0f7b" class="strokes">
        <g class="stroke-shape">
          <path stroke-linecap="round" stroke-linejoin="round" rx="0" ry="0" style="fill:none;fill-opacity:none;stroke-width:1.5;stroke:#bdbdbd;stroke-opacity:1" d="M543.000,788.625L550.875,791.625L550.875,799.125C550.875,802.500,547.875,805.875,543.000,807.375C538.125,805.875,535.125,802.875,535.125,799.125L535.125,791.625Z">
          </path>
        </g>
      </g>
    </g>
    <g id="shape-5052de9f-44fa-8004-8002-2540b30f0f7c">
      <g class="fills" id="fills-5052de9f-44fa-8004-8002-2540b30f0f7c">
        <path fill="none" stroke-linecap="round" stroke-linejoin="round" rx="0" ry="0" style="fill:none" d="M543.000,802.125L543.000,802.125ZM543.000,793.875L543.000,798.375">
        </path>
      </g>
      <g id="strokes-5052de9f-44fa-8004-8002-2540b30f0f7c" class="strokes">
        <g class="stroke-shape">
          <path stroke-linecap="round" stroke-linejoin="round" rx="0" ry="0" style="fill:none;fill-opacity:none;stroke-width:1.5;stroke:#bdbdbd;stroke-opacity:1" d="M543.000,802.125L543.000,802.125ZM543.000,793.875L543.000,798.375">
          </path>
        </g>
      </g>
    </g>
  </g>
</svg>
