<!-- Shape: external-drive-svgrepo-com (1) -->
<svg xmlns:xlink="http://www.w3.org/1999/xlink" fill="none" width="24" xmlns="http://www.w3.org/2000/svg" style="-webkit-print-color-adjust:exact" id="screenshot-5052de9f-44fa-8004-8002-2540b30f0f54" version="1.1" viewBox="531 914 24 24" height="24">
  <g id="shape-5052de9f-44fa-8004-8002-2540b30f0f54" style="fill:#000000" width="800px" height="800px" rx="0" ry="0">
    <g id="shape-5052de9f-44fa-8004-8002-2540b30f0f64">
      <g class="fills" id="fills-5052de9f-44fa-8004-8002-2540b30f0f64">
        <path fill="none" stroke-linecap="round" stroke-linejoin="round" rx="0" ry="0" style="fill:none" d="M547.000,936.000L540.000,936.000C537.000,936.000,535.000,934.000,535.000,931.000L535.000,921.000C535.000,918.000,537.000,916.000,540.000,916.000L547.000,916.000C550.000,916.000,552.000,918.000,552.000,921.000L552.000,931.000C552.000,934.000,550.000,936.000,547.000,936.000ZZ">
        </path>
      </g>
      <g id="strokes-5052de9f-44fa-8004-8002-2540b30f0f64" class="strokes">
        <g class="stroke-shape">
          <path stroke-linecap="round" stroke-linejoin="round" rx="0" ry="0" style="fill:none;fill-opacity:none;stroke-width:1;stroke:#bdbdbd;stroke-opacity:1;stroke-dasharray:" d="M547.000,936.000L540.000,936.000C537.000,936.000,535.000,934.000,535.000,931.000L535.000,921.000C535.000,918.000,537.000,916.000,540.000,916.000L547.000,916.000C550.000,916.000,552.000,918.000,552.000,921.000L552.000,931.000C552.000,934.000,550.000,936.000,547.000,936.000ZZ">
          </path>
        </g>
      </g>
    </g>
    <g id="shape-5052de9f-44fa-8004-8002-2540b30f0f65">
      <g class="fills" id="fills-5052de9f-44fa-8004-8002-2540b30f0f65">
        <path fill="none" stroke-linecap="round" stroke-linejoin="round" rx="0" ry="0" style="fill:none" d="M535.000,929.000L552.000,929.000">
        </path>
      </g>
      <g id="strokes-5052de9f-44fa-8004-8002-2540b30f0f65" class="strokes">
        <g class="stroke-shape">
          <path stroke-linecap="round" stroke-linejoin="round" rx="0" ry="0" style="fill:none;fill-opacity:none;stroke-width:1;stroke:#bdbdbd;stroke-opacity:1;stroke-dasharray:" d="M535.000,929.000L552.000,929.000">
          </path>
        </g>
      </g>
    </g>
    <g id="shape-5052de9f-44fa-8004-8002-2540b30f0f66">
      <g class="fills" id="fills-5052de9f-44fa-8004-8002-2540b30f0f66">
        <path fill="none" stroke-linecap="round" stroke-linejoin="round" rx="0" ry="0" style="fill:none" d="M538.000,926.000L539.000,926.000">
        </path>
      </g>
      <g id="strokes-5052de9f-44fa-8004-8002-2540b30f0f66" class="strokes">
        <g class="stroke-shape">
          <path stroke-linecap="round" stroke-linejoin="round" rx="0" ry="0" style="fill:none;fill-opacity:none;stroke-width:1;stroke:#bdbdbd;stroke-opacity:1;stroke-dasharray:" d="M538.000,926.000L539.000,926.000">
          </path>
        </g>
      </g>
    </g>
    <g id="shape-5052de9f-44fa-8004-8002-2540b30f0f67">
      <g class="fills" id="fills-5052de9f-44fa-8004-8002-2540b30f0f67">
        <path fill="none" stroke-linecap="round" stroke-linejoin="round" rx="0" ry="0" style="fill:none" d="M538.000,923.500L539.000,923.500">
        </path>
      </g>
      <g id="strokes-5052de9f-44fa-8004-8002-2540b30f0f67" class="strokes">
        <g class="stroke-shape">
          <path stroke-linecap="round" stroke-linejoin="round" rx="0" ry="0" style="fill:none;fill-opacity:none;stroke-width:1;stroke:#bdbdbd;stroke-opacity:1;stroke-dasharray:" d="M538.000,923.500L539.000,923.500">
          </path>
        </g>
      </g>
    </g>
    <g id="shape-5052de9f-44fa-8004-8002-2540b30f0f68">
      <g class="fills" id="fills-5052de9f-44fa-8004-8002-2540b30f0f68">
        <path fill="none" stroke-linecap="round" stroke-linejoin="round" rx="0" ry="0" style="fill:none" d="M538.000,921.000L539.000,921.000">
        </path>
      </g>
      <g id="strokes-5052de9f-44fa-8004-8002-2540b30f0f68" class="strokes">
        <g class="stroke-shape">
          <path stroke-linecap="round" stroke-linejoin="round" rx="0" ry="0" style="fill:none;fill-opacity:none;stroke-width:1;stroke:#bdbdbd;stroke-opacity:1;stroke-dasharray:" d="M538.000,921.000L539.000,921.000">
          </path>
        </g>
      </g>
    </g>
    <g id="shape-5052de9f-44fa-8004-8002-2540b30f0f69">
      <g class="fills" id="fills-5052de9f-44fa-8004-8002-2540b30f0f69">
        <path fill="none" stroke-linecap="round" stroke-linejoin="round" rx="0" ry="0" style="fill:none" d="M547.494,932.250L547.494,932.250Z">
        </path>
      </g>
      <g id="strokes-5052de9f-44fa-8004-8002-2540b30f0f69" class="strokes">
        <g class="stroke-shape">
          <path stroke-linecap="round" stroke-linejoin="round" rx="0" ry="0" style="fill:none;fill-opacity:none;stroke-width:1;stroke:#bdbdbd;stroke-opacity:1;stroke-dasharray:" d="M547.494,932.250L547.494,932.250Z">
          </path>
        </g>
      </g>
    </g>
  </g>
</svg>
